<svg xmlns="http://www.w3.org/2000/svg" width="256" height="256" xml:space="preserve"><g style="stroke:none;stroke-width:0;stroke-dasharray:none;stroke-linecap:butt;stroke-linejoin:miter;stroke-miterlimit:10;fill:none;fill-rule:nonzero;opacity:1"><path d="M45 0C20.147 0 0 20.147 0 45a44.78 44.78 0 0 0 7.42 24.746L0 89.474l19.536-7.375A44.787 44.787 0 0 0 45 90c24.853 0 45-20.147 45-45S69.853 0 45 0z" style="stroke:none;stroke-width:1;stroke-dasharray:none;stroke-linecap:butt;stroke-linejoin:miter;stroke-miterlimit:10;fill:#0084ff;fill-rule:nonzero;opacity:1" transform="matrix(2.81 0 0 2.81 1.407 1.407)"/><path style="stroke:none;stroke-width:1;stroke-dasharray:none;stroke-linecap:butt;stroke-linejoin:miter;stroke-miterlimit:10;fill:#fff;fill-rule:nonzero;opacity:1" transform="matrix(2.81 0 0 2.81 1.407 1.407)" d="m17.4 57.49 23.87-24.98L52.83 43.7 72.6 33.62 50.78 57.49 38.47 45.93z"/></g></svg>